<svg id="svg" version="1.1" xmlns="http://www.w3.org/2000/svg" xmlns:xlink="http://www.w3.org/1999/xlink" width="400" height="240" viewBox="0, 0, 400,240"><g id="svgg"><path id="path0" d="M73.667 87.918 C 66.911 88.846,62.922 91.324,55.696 99.078 C 54.076 100.817,52.395 102.617,51.962 103.078 C 51.041 104.057,50.990 104.351,51.656 104.825 C 52.880 105.698,55.208 106.104,57.442 105.837 C 59.908 105.541,60.304 105.301,67.939 99.462 C 72.066 96.305,74.122 95.437,77.500 95.425 C 82.299 95.408,83.402 96.209,108.656 118.062 C 109.808 119.058,111.296 120.344,111.963 120.919 L 113.176 121.964 117.046 120.389 C 123.849 117.621,132.035 114.973,139.417 113.152 C 141.708 112.587,143.607 112.104,143.635 112.080 C 143.746 111.984,142.993 109.168,142.412 107.500 C 140.461 101.903,136.183 95.853,130.962 91.305 L 130.007 90.473 127.775 91.403 C 115.221 96.633,103.708 96.556,91.833 91.162 C 85.462 88.268,79.227 87.155,73.667 87.918 M18.250 90.789 C 13.038 95.247,8.725 100.979,6.645 106.215 C 6.136 107.495,5.168 110.696,5.167 111.099 C 5.167 111.492,6.586 111.921,12.833 113.419 C 22.182 115.661,30.336 118.659,35.032 121.580 L 36.219 122.319 36.688 121.924 C 39.225 119.789,43.439 119.901,45.898 122.168 L 46.655 122.865 47.666 122.360 C 51.024 120.682,55.355 121.544,57.657 124.348 C 58.150 124.949,58.511 125.242,58.740 125.226 C 58.929 125.213,59.586 125.147,60.200 125.078 C 64.857 124.558,68.667 127.923,68.667 132.555 L 68.667 133.462 69.625 133.577 C 75.141 134.239,78.591 139.476,76.848 144.542 L 76.534 145.453 77.809 145.974 C 80.947 147.257,83.916 147.253,85.287 145.965 C 85.814 145.470,85.865 145.564,83.873 143.382 C 79.061 138.111,78.997 138.022,79.638 137.442 C 80.357 136.792,81.947 137.975,86.708 142.701 C 88.523 144.503,88.738 144.599,90.641 144.463 C 93.343 144.270,95.218 142.039,94.251 140.169 C 94.114 139.904,92.361 137.848,90.356 135.601 C 86.574 131.363,86.377 131.083,86.778 130.511 C 87.440 129.565,88.265 130.174,94.213 136.000 C 96.959 138.691,97.550 139.038,99.250 138.960 C 102.776 138.798,105.283 135.700,103.979 133.118 C 103.759 132.684,101.700 130.480,98.574 127.333 C 93.448 122.174,93.033 121.657,93.583 121.107 C 94.236 120.455,94.710 120.768,99.347 124.917 C 101.293 126.658,103.650 128.764,104.584 129.597 C 107.378 132.086,109.430 132.367,111.853 130.592 C 114.489 128.661,113.913 126.404,109.892 122.913 C 95.451 110.378,87.474 103.622,84.321 101.255 C 78.417 96.824,75.318 97.286,66.917 103.846 C 60.467 108.882,57.008 109.786,51.736 107.814 C 47.622 106.274,47.219 104.028,50.437 100.557 C 51.273 99.655,52.934 97.867,54.128 96.583 C 55.322 95.300,56.273 94.223,56.242 94.190 C 56.166 94.109,54.984 94.386,51.667 95.261 C 47.134 96.457,45.240 96.554,40.847 95.816 C 35.846 94.976,26.846 92.294,20.000 89.605 C 19.841 89.542,19.205 89.973,18.250 90.789 M39.828 123.246 C 37.248 124.076,36.019 127.324,37.424 129.597 C 38.834 131.877,41.702 132.471,43.750 130.908 C 44.839 130.077,44.953 130.201,45.025 132.309 C 45.180 136.838,48.828 139.488,52.407 137.672 C 53.897 136.915,54.062 136.985,54.174 138.419 C 54.459 142.062,59.027 144.035,61.715 141.675 C 62.705 140.805,63.015 140.979,63.335 142.583 C 64.310 147.486,69.861 149.216,73.090 145.624 C 76.988 141.288,72.539 134.786,66.952 136.653 C 65.227 137.230,65.099 137.019,65.748 134.672 C 66.105 133.382,66.071 131.703,65.667 130.623 C 64.607 127.789,60.378 126.753,58.039 128.756 C 57.044 129.607,56.503 129.419,56.498 128.219 C 56.483 123.752,49.408 122.962,46.417 127.093 L 45.751 128.013 45.548 127.009 C 44.942 124.017,42.477 122.395,39.828 123.246 " stroke="none" fill="#fbfbfb" fill-rule="evenodd"></path><path id="path1" d="M69.083 72.931 C 61.907 73.461,59.196 73.796,53.584 74.843 C 42.803 76.854,32.191 81.047,23.628 86.679 C 23.012 87.085,22.505 87.464,22.503 87.522 C 22.491 87.914,34.219 91.476,39.390 92.651 C 44.706 93.859,46.203 93.791,53.000 92.033 C 56.172 91.212,58.219 90.833,59.483 90.833 C 59.972 90.833,60.323 90.666,61.096 90.065 C 69.011 83.909,80.528 83.179,91.833 88.118 C 101.772 92.460,108.706 93.419,117.417 91.656 C 119.804 91.173,125.645 89.361,126.916 88.709 L 127.505 88.407 124.961 86.726 C 113.562 79.192,100.437 74.890,83.833 73.243 C 81.411 73.003,71.071 72.784,69.083 72.931 M4.420 116.195 C 3.033 137.189,27.376 156.817,60.000 161.011 C 100.858 166.262,139.366 148.315,143.832 121.942 C 144.148 120.078,144.322 115.167,144.072 115.167 C 143.236 115.167,130.080 118.845,125.917 120.243 C 123.264 121.133,116.477 123.616,115.650 123.997 L 115.218 124.197 115.643 125.223 C 117.488 129.674,113.819 134.500,108.591 134.500 L 107.234 134.500 107.049 135.583 C 106.455 139.047,103.187 141.646,99.263 141.773 L 97.609 141.826 97.415 142.391 C 96.448 145.203,93.537 147.079,90.123 147.090 L 87.995 147.097 87.492 147.708 C 85.463 150.168,80.697 150.404,76.089 148.272 L 74.927 147.735 73.894 148.517 C 69.815 151.604,62.805 149.831,61.306 145.333 C 61.258 145.192,60.953 145.194,60.109 145.341 C 57.374 145.817,53.596 143.999,52.319 141.592 L 51.917 140.833 50.894 140.937 C 47.553 141.280,43.635 138.556,42.655 135.208 L 42.447 134.500 41.325 134.500 C 36.466 134.500,32.427 128.873,34.503 124.995 C 35.349 123.413,20.586 118.021,7.648 115.186 C 6.421 114.917,5.218 114.646,4.975 114.584 L 4.534 114.472 4.420 116.195 " stroke="none" fill="#fbe304" fill-rule="evenodd"></path><path id="path2" d="M68.750 69.932 C 62.741 70.367,59.704 70.726,54.750 71.590 C 48.960 72.598,46.458 73.233,41.545 74.939 C 39.825 75.536,38.148 76.092,37.819 76.174 C 35.856 76.663,27.030 80.975,24.160 82.847 C 23.110 83.532,22.045 84.197,21.794 84.324 C 18.106 86.187,10.273 94.000,6.974 99.108 C -0.603 110.837,-0.602 128.538,6.976 140.559 C 7.545 141.463,8.153 142.475,8.327 142.809 C 9.786 145.610,20.089 156.000,21.408 156.000 C 21.469 156.000,22.548 156.699,23.805 157.553 C 26.180 159.165,32.528 162.491,35.083 163.462 C 60.110 172.968,89.191 172.972,113.583 163.471 C 130.024 157.068,142.556 144.024,146.060 129.667 C 148.089 121.357,147.365 110.317,144.409 104.484 C 144.184 104.041,144.000 103.590,144.000 103.483 C 144.000 102.752,140.532 97.258,138.592 94.917 C 135.310 90.954,129.688 86.077,125.335 83.417 C 124.585 82.958,123.509 82.290,122.944 81.932 C 121.214 80.834,115.223 77.913,112.583 76.880 C 110.768 76.169,110.646 76.126,106.264 74.658 C 103.328 73.674,97.737 72.167,97.022 72.167 C 96.821 72.167,95.737 71.980,94.613 71.753 C 87.602 70.333,75.239 69.463,68.750 69.932 M360.833 72.765 C 356.793 73.838,356.171 75.054,356.156 81.905 C 356.150 84.773,356.087 86.606,356.003 86.396 C 354.863 83.575,348.540 81.596,344.333 82.744 C 337.592 84.583,334.249 90.166,334.250 99.583 C 334.251 110.173,339.458 115.500,349.808 115.500 C 353.344 115.500,358.817 113.907,359.593 112.652 C 359.652 112.556,360.000 112.260,360.368 111.994 C 362.145 110.707,363.632 108.127,364.253 105.250 L 364.667 103.339 364.667 87.919 L 364.667 72.500 363.208 72.511 C 362.406 72.517,361.337 72.631,360.833 72.765 M83.750 73.069 C 99.461 74.489,114.024 79.218,124.750 86.383 C 126.551 87.586,127.500 88.315,127.500 88.493 C 127.500 88.679,123.548 90.219,121.750 90.733 C 111.363 93.707,102.379 93.075,92.917 88.703 C 81.553 83.452,69.744 83.871,61.703 89.810 L 60.157 90.953 58.645 91.067 C 56.729 91.212,54.802 91.609,51.333 92.574 C 45.658 94.153,44.260 94.070,34.667 91.581 C 31.234 90.690,25.968 89.038,23.344 88.027 L 22.104 87.550 23.858 86.373 C 35.519 78.549,50.836 73.942,69.083 72.771 C 71.298 72.629,81.075 72.828,83.750 73.069 M379.000 82.429 C 374.005 83.334,369.221 87.346,368.166 91.515 C 368.087 91.828,367.910 92.389,367.773 92.762 C 365.528 98.845,367.426 107.608,371.893 111.786 C 375.735 115.381,383.224 116.611,389.087 114.612 C 402.262 110.118,402.286 87.557,389.120 83.066 C 386.514 82.178,381.969 81.891,379.000 82.429 M178.929 82.682 C 176.087 83.380,173.299 85.190,172.053 87.145 C 171.725 87.661,171.400 88.121,171.333 88.167 C 171.061 88.350,170.143 90.403,169.715 91.784 L 169.260 93.250 169.204 104.042 L 169.149 114.833 173.074 114.833 L 177.000 114.833 177.000 104.932 C 177.000 95.663,177.020 94.964,177.317 94.010 C 178.729 89.473,185.319 88.896,187.305 93.135 L 187.750 94.083 187.797 104.458 L 187.843 114.833 191.755 114.833 L 195.667 114.833 195.673 105.042 C 195.680 93.177,195.697 93.043,197.417 91.659 C 200.217 89.405,204.306 89.970,205.736 92.810 C 206.463 94.255,206.500 94.844,206.500 105.092 L 206.500 114.833 210.428 114.833 L 214.355 114.833 214.294 104.125 L 214.234 93.417 213.798 91.833 C 213.068 89.176,212.094 87.372,210.531 85.785 C 206.157 81.345,197.145 81.167,192.738 85.435 L 191.855 86.290 190.954 85.417 C 190.458 84.937,189.647 84.334,189.151 84.077 C 188.656 83.821,187.987 83.475,187.667 83.309 C 185.755 82.319,181.614 82.022,178.929 82.682 M230.333 82.520 C 222.130 83.459,217.291 89.595,217.270 99.083 C 217.253 107.024,220.116 111.827,226.350 114.318 C 234.437 117.550,243.693 114.716,247.163 107.947 C 248.246 105.835,248.567 106.000,243.373 106.000 L 238.912 106.000 238.171 106.764 C 236.414 108.578,231.910 109.014,229.286 107.625 C 227.495 106.677,225.843 103.924,225.835 101.875 L 225.833 101.333 237.083 101.333 L 248.333 101.333 248.332 99.292 C 248.331 98.169,248.224 96.313,248.095 95.167 C 247.116 86.469,240.013 81.411,230.333 82.520 M266.189 82.513 C 262.068 82.911,257.862 84.752,256.073 86.942 C 255.712 87.384,255.283 87.881,255.119 88.045 C 254.282 88.888,253.338 90.701,252.538 93.000 L 252.103 94.250 252.038 104.542 L 251.974 114.833 256.143 114.833 L 260.313 114.833 260.371 105.708 C 260.428 96.702,260.434 96.568,260.813 95.431 C 261.910 92.139,264.078 90.887,268.442 91.026 L 270.333 91.086 270.333 86.812 L 270.333 82.539 269.958 82.438 C 269.482 82.311,267.978 82.341,266.189 82.513 M284.500 82.494 C 282.200 82.794,280.272 83.407,278.173 84.506 C 276.253 85.512,273.683 88.522,272.702 90.917 C 271.343 94.229,270.906 100.923,271.821 104.396 C 272.011 105.118,272.167 105.835,272.167 105.988 C 272.167 106.990,274.380 110.538,275.879 111.940 C 279.959 115.754,288.447 116.720,294.106 114.015 C 298.049 112.130,301.132 107.935,301.598 103.823 L 301.710 102.828 297.161 102.872 L 292.611 102.917 292.378 104.071 C 291.755 107.152,290.388 108.226,287.090 108.225 C 284.752 108.224,284.331 108.089,283.044 106.928 C 279.663 103.877,279.535 94.720,282.825 91.342 C 285.768 88.320,291.407 89.309,292.306 93.004 C 292.429 93.506,292.565 94.048,292.609 94.208 C 292.683 94.477,293.049 94.500,297.280 94.500 L 301.871 94.500 301.757 93.708 C 301.258 90.248,299.933 87.358,298.092 85.718 C 295.412 83.329,289.272 81.873,284.500 82.494 M314.917 82.518 C 309.196 83.343,305.548 86.921,305.059 92.186 L 304.952 93.333 309.040 93.333 L 313.127 93.333 313.306 92.625 C 313.908 90.249,315.547 89.153,318.500 89.152 C 321.365 89.151,323.135 90.023,323.427 91.580 C 323.836 93.759,322.321 94.758,317.750 95.325 C 312.644 95.959,310.023 96.571,308.583 97.467 C 304.943 99.731,303.717 102.545,304.156 107.627 C 304.669 113.559,310.309 116.421,319.338 115.329 C 325.311 114.607,329.045 112.489,330.796 108.831 C 331.899 106.525,331.917 106.348,331.917 97.583 C 331.917 88.929,331.916 88.921,330.731 86.899 C 328.776 83.564,321.548 81.562,314.917 82.518 M81.667 87.937 C 85.411 88.557,88.592 89.573,92.822 91.499 C 103.788 96.493,116.260 96.314,128.554 90.985 L 130.025 90.347 131.804 91.990 C 137.684 97.418,141.571 103.429,143.179 109.578 C 143.907 112.360,144.229 112.023,139.750 113.167 C 130.891 115.429,122.001 118.333,115.783 120.997 L 113.149 122.126 112.283 121.347 C 110.440 119.689,96.925 108.061,94.747 106.259 C 94.198 105.805,93.410 105.130,92.995 104.759 C 80.130 93.250,76.435 92.750,65.954 101.096 C 63.520 103.035,61.316 104.586,60.167 105.170 C 57.619 106.464,53.167 106.255,51.541 104.765 C 50.813 104.098,50.727 104.254,53.372 101.426 C 54.405 100.322,55.700 98.930,56.250 98.334 C 64.554 89.331,71.914 86.320,81.667 87.937 M234.367 89.521 C 237.104 90.102,239.120 92.206,239.578 94.958 L 239.696 95.667 232.848 95.667 C 229.082 95.667,226.000 95.605,226.000 95.530 C 226.000 91.774,230.330 88.664,234.367 89.521 M385.874 89.966 C 391.504 92.738,391.494 105.085,385.860 107.773 C 384.497 108.424,381.200 108.451,379.915 107.823 C 376.521 106.164,375.052 101.771,375.905 95.833 C 376.652 90.626,381.463 87.795,385.874 89.966 M21.420 90.018 C 26.113 91.846,31.423 93.516,36.966 94.906 C 42.859 96.383,46.738 96.532,50.750 95.435 C 55.105 94.243,56.333 93.944,56.438 94.049 C 56.514 94.125,52.726 98.340,51.839 99.167 C 51.161 99.798,48.811 102.548,48.606 102.950 C 47.164 105.772,51.017 108.509,56.500 108.558 C 60.136 108.590,61.575 107.903,67.417 103.340 C 74.367 97.913,77.852 97.048,82.171 99.679 C 84.713 101.229,90.949 106.371,104.177 117.826 C 113.548 125.941,113.190 125.571,113.440 127.395 C 113.743 129.606,111.464 131.714,108.750 131.734 C 107.005 131.747,106.521 131.503,104.343 129.522 C 100.016 125.584,96.088 122.117,95.103 121.366 C 94.548 120.944,93.702 120.880,93.560 121.250 C 93.323 121.868,93.904 122.558,98.660 127.318 C 104.535 133.198,104.893 133.731,104.258 135.644 C 103.589 137.656,101.429 139.089,99.086 139.075 C 97.277 139.064,97.046 138.922,94.000 135.930 C 88.484 130.512,87.502 129.778,86.840 130.575 C 86.425 131.076,86.563 131.263,90.917 136.078 C 94.251 139.766,94.667 140.333,94.667 141.193 C 94.667 143.031,92.634 144.557,90.167 144.572 C 88.567 144.582,88.557 144.576,85.561 141.725 C 81.822 138.166,80.743 137.304,80.107 137.366 C 78.922 137.481,79.233 138.151,81.761 140.921 C 86.460 146.073,86.261 145.686,84.644 146.512 C 82.492 147.610,76.170 146.515,76.571 145.113 C 77.225 142.825,77.312 141.822,76.999 140.148 C 76.359 136.720,72.731 133.667,69.298 133.667 L 68.667 133.667 68.666 132.958 C 68.659 127.726,63.600 123.755,58.991 125.361 C 58.467 125.544,58.411 125.527,58.091 125.081 C 55.715 121.768,51.522 120.678,47.855 122.419 L 46.623 123.004 45.853 122.285 C 43.468 120.055,39.596 119.876,36.982 121.874 L 36.215 122.461 34.967 121.657 C 33.181 120.506,31.143 119.518,27.784 118.176 C 22.927 116.234,20.689 115.537,13.000 113.573 C 10.662 112.976,7.901 112.256,6.864 111.972 L 4.978 111.456 5.094 110.771 C 6.136 104.604,11.674 96.221,18.583 90.352 C 19.763 89.350,19.720 89.355,21.420 90.018 M352.091 90.371 C 357.641 93.233,357.932 104.547,352.539 107.777 C 351.353 108.488,347.673 108.499,346.478 107.796 C 343.010 105.758,341.787 99.115,343.869 93.632 C 345.095 90.405,349.087 88.822,352.091 90.371 M323.254 104.083 C 322.719 106.488,321.572 107.734,319.094 108.601 C 315.316 109.922,312.458 108.552,312.458 105.419 C 312.458 102.906,313.990 101.773,318.634 100.851 C 321.215 100.338,322.740 99.941,323.167 99.670 C 323.541 99.432,323.603 102.518,323.254 104.083 M8.432 115.238 C 21.500 118.333,29.181 120.981,33.789 123.980 C 34.765 124.615,34.819 124.683,34.666 125.086 C 33.023 129.407,36.345 134.173,41.069 134.272 L 42.559 134.304 42.925 135.389 C 43.996 138.569,46.973 140.745,50.258 140.748 L 51.957 140.750 52.297 141.333 C 53.936 144.148,57.114 145.598,60.517 145.085 L 61.284 144.970 61.807 145.896 C 64.420 150.526,69.766 151.299,74.738 147.767 C 74.874 147.670,75.322 147.795,76.018 148.124 C 80.492 150.237,85.134 150.007,87.442 147.557 L 88.134 146.822 89.246 146.999 C 92.599 147.535,96.657 145.034,97.390 141.980 C 97.493 141.552,97.517 141.546,98.625 141.625 C 102.598 141.909,106.502 138.918,106.961 135.239 L 107.084 134.255 108.334 134.302 C 113.644 134.500,117.522 129.510,115.467 125.124 L 115.017 124.164 115.634 123.901 C 121.649 121.332,130.456 118.467,138.917 116.327 C 144.867 114.822,144.304 114.738,144.322 117.132 C 144.502 140.907,115.610 160.580,78.426 162.003 C 40.698 163.447,7.638 145.242,4.578 121.340 C 4.261 118.861,4.261 114.333,4.578 114.333 C 4.598 114.333,6.333 114.740,8.432 115.238 M245.500 124.167 L 245.500 128.333 249.833 128.333 L 254.167 128.333 254.167 124.167 L 254.167 120.000 249.833 120.000 L 245.500 120.000 245.500 124.167 M235.630 120.569 C 234.427 120.994,233.037 121.915,232.605 122.574 C 231.718 123.928,231.763 122.877,231.709 143.208 L 231.658 162.000 235.663 162.000 L 239.667 162.000 239.667 141.083 L 239.667 120.167 238.208 120.170 C 237.106 120.173,236.476 120.270,235.630 120.569 M43.121 123.443 C 44.545 124.115,45.667 125.769,45.667 127.196 C 45.667 127.455,45.742 127.667,45.833 127.667 C 45.925 127.667,46.000 127.598,46.000 127.513 C 46.000 127.429,46.385 126.939,46.856 126.424 C 50.238 122.723,55.543 123.652,56.558 128.124 C 56.821 129.280,57.079 129.385,57.954 128.689 C 61.951 125.514,67.293 129.414,65.914 134.500 C 65.257 136.924,65.330 137.047,67.127 136.512 C 72.971 134.772,77.227 141.628,72.955 145.900 C 69.688 149.167,63.862 147.247,63.245 142.699 C 63.026 141.089,62.799 140.980,61.592 141.901 C 58.652 144.145,54.005 141.839,54.001 138.135 C 54.000 137.076,53.836 137.035,52.437 137.745 C 48.647 139.669,44.419 136.344,44.893 131.812 C 45.025 130.550,44.756 130.288,43.954 130.899 C 42.143 132.281,39.595 132.111,37.984 130.500 C 34.462 126.978,38.591 121.306,43.121 123.443 M300.083 130.246 C 293.727 131.259,289.654 134.369,287.851 139.585 C 286.860 142.454,286.833 142.807,286.833 152.848 L 286.833 162.000 291.075 162.000 L 295.317 162.000 295.373 152.958 C 295.426 144.318,295.444 143.862,295.783 142.690 C 296.596 139.880,298.846 138.580,302.875 138.592 L 305.000 138.598 305.000 134.299 L 305.000 130.000 303.208 130.016 C 302.223 130.026,300.817 130.129,300.083 130.246 M318.351 130.197 C 314.222 130.714,309.723 133.591,307.972 136.833 C 304.749 142.806,304.845 150.877,308.209 156.735 C 308.735 157.650,310.587 159.432,311.445 159.847 C 311.841 160.039,312.208 160.266,312.261 160.351 C 312.314 160.437,312.783 160.722,313.304 160.985 C 321.693 165.216,332.834 161.995,335.676 154.516 C 336.142 153.290,336.296 153.333,331.501 153.333 L 327.188 153.333 326.303 154.214 C 322.152 158.340,314.167 155.049,314.167 149.212 L 314.167 148.667 325.357 148.667 L 336.547 148.667 336.428 146.125 C 336.148 140.133,335.557 138.244,332.950 135.000 C 329.893 131.197,324.511 129.426,318.351 130.197 M245.500 146.417 L 245.500 162.000 249.833 162.000 L 254.167 162.000 254.167 146.417 L 254.167 130.833 249.833 130.833 L 245.500 130.833 245.500 146.417 M256.547 131.208 C 256.626 131.556,256.988 132.567,258.952 137.917 C 259.355 139.017,259.802 140.292,259.945 140.750 C 260.288 141.851,262.162 147.171,263.204 150.000 C 263.659 151.237,264.090 152.512,264.161 152.833 C 264.271 153.332,265.666 157.263,267.059 161.000 L 267.463 162.083 271.711 162.128 L 275.959 162.172 276.417 160.961 C 277.707 157.549,278.479 155.413,279.658 152.000 C 280.370 149.938,281.381 147.087,281.905 145.667 C 282.429 144.246,283.126 142.296,283.454 141.333 C 284.674 137.751,285.169 136.349,286.155 133.679 C 286.712 132.173,287.167 130.917,287.167 130.887 C 287.167 130.858,285.610 130.834,283.708 130.834 C 277.910 130.836,277.460 131.155,276.173 136.180 C 275.811 137.593,275.335 139.313,275.116 140.000 C 274.378 142.312,272.192 149.908,271.983 150.883 C 271.689 152.259,271.617 152.203,271.019 150.118 C 270.254 147.453,269.469 144.767,268.683 142.120 C 268.307 140.857,268.000 139.698,268.000 139.543 C 268.000 139.295,267.155 136.337,265.905 132.208 L 265.489 130.833 260.975 130.833 L 256.461 130.833 256.547 131.208 M323.271 137.252 C 325.261 137.839,327.063 139.707,327.605 141.742 C 328.025 143.318,328.717 143.167,321.080 143.167 L 314.327 143.167 314.435 142.708 C 315.504 138.151,319.002 135.992,323.271 137.252 " stroke="none" fill="#1c2c7c" fill-rule="evenodd"></path><path id="path3" d="M69.042 72.948 C 69.202 72.990,69.465 72.990,69.625 72.948 C 69.785 72.906,69.654 72.872,69.333 72.872 C 69.012 72.872,68.881 72.906,69.042 72.948 M78.875 72.948 C 79.035 72.990,79.298 72.990,79.458 72.948 C 79.619 72.906,79.487 72.872,79.167 72.872 C 78.846 72.872,78.715 72.906,78.875 72.948 M66.042 73.115 C 66.202 73.157,66.465 73.157,66.625 73.115 C 66.785 73.073,66.654 73.039,66.333 73.039 C 66.012 73.039,65.881 73.073,66.042 73.115 M64.042 73.282 C 64.202 73.323,64.465 73.323,64.625 73.282 C 64.785 73.240,64.654 73.205,64.333 73.205 C 64.012 73.205,63.881 73.240,64.042 73.282 M76.542 84.956 C 77.069 84.990,77.931 84.990,78.458 84.956 C 78.985 84.923,78.554 84.896,77.500 84.896 C 76.446 84.896,76.015 84.923,76.542 84.956 M106.875 92.448 C 107.035 92.490,107.298 92.490,107.458 92.448 C 107.619 92.406,107.487 92.372,107.167 92.372 C 106.846 92.372,106.715 92.406,106.875 92.448 M112.042 92.448 C 112.202 92.490,112.465 92.490,112.625 92.448 C 112.785 92.406,112.654 92.372,112.333 92.372 C 112.013 92.372,111.881 92.406,112.042 92.448 M43.125 93.451 C 43.331 93.491,43.669 93.491,43.875 93.451 C 44.081 93.411,43.913 93.379,43.500 93.379 C 43.087 93.379,42.919 93.411,43.125 93.451 M144.224 117.417 C 144.224 118.150,144.254 118.429,144.289 118.037 C 144.324 117.645,144.324 117.045,144.288 116.704 C 144.252 116.363,144.223 116.683,144.224 117.417 M35.667 131.885 C 35.667 131.914,35.910 132.158,36.208 132.427 L 36.750 132.917 36.260 132.375 C 35.804 131.870,35.667 131.757,35.667 131.885 M40.629 134.456 C 41.021 134.491,41.621 134.490,41.963 134.454 C 42.304 134.419,41.983 134.390,41.250 134.390 C 40.517 134.391,40.237 134.420,40.629 134.456 M107.460 134.451 C 107.668 134.491,107.968 134.490,108.127 134.448 C 108.286 134.406,108.117 134.374,107.750 134.375 C 107.383 134.377,107.253 134.411,107.460 134.451 M109.294 134.451 C 109.501 134.491,109.801 134.490,109.960 134.448 C 110.120 134.406,109.950 134.374,109.583 134.375 C 109.217 134.377,109.086 134.411,109.294 134.451 M105.158 139.125 L 104.583 139.750 105.208 139.176 C 105.552 138.860,105.833 138.578,105.833 138.551 C 105.833 138.423,105.692 138.543,105.158 139.125 M15.250 141.333 C 16.255 142.342,17.115 143.167,17.161 143.167 C 17.207 143.167,16.422 142.342,15.417 141.333 C 14.411 140.325,13.552 139.500,13.506 139.500 C 13.460 139.500,14.245 140.325,15.250 141.333 M133.245 141.375 L 132.250 142.417 133.292 141.422 C 133.865 140.875,134.333 140.406,134.333 140.380 C 134.333 140.257,134.169 140.407,133.245 141.375 M98.463 141.789 C 98.855 141.824,99.455 141.824,99.796 141.788 C 100.137 141.752,99.817 141.723,99.083 141.724 C 98.350 141.724,98.071 141.754,98.463 141.789 M53.326 142.875 C 54.017 143.611,54.167 143.743,54.167 143.618 C 54.167 143.591,53.810 143.235,53.375 142.826 L 52.583 142.083 53.326 142.875 M58.625 145.451 C 58.831 145.491,59.169 145.491,59.375 145.451 C 59.581 145.411,59.413 145.379,59.000 145.379 C 58.587 145.379,58.419 145.411,58.625 145.451 M62.833 147.583 C 63.144 147.904,63.436 148.167,63.482 148.167 C 63.528 148.167,63.311 147.904,63.000 147.583 C 62.689 147.262,62.397 147.000,62.351 147.000 C 62.305 147.000,62.522 147.262,62.833 147.583 M81.461 149.787 C 81.761 149.825,82.211 149.824,82.461 149.786 C 82.712 149.748,82.467 149.717,81.917 149.718 C 81.367 149.719,81.162 149.750,81.461 149.787 M85.208 161.448 C 85.369 161.490,85.631 161.490,85.792 161.448 C 85.952 161.406,85.821 161.372,85.500 161.372 C 85.179 161.372,85.048 161.406,85.208 161.448 M64.625 161.618 C 64.831 161.657,65.169 161.657,65.375 161.618 C 65.581 161.578,65.412 161.545,65.000 161.545 C 64.587 161.545,64.419 161.578,64.625 161.618 M83.211 161.620 C 83.464 161.658,83.839 161.657,84.044 161.617 C 84.249 161.578,84.042 161.546,83.583 161.548 C 83.125 161.549,82.957 161.581,83.211 161.620 M66.795 161.787 C 67.094 161.825,67.544 161.824,67.795 161.786 C 68.045 161.748,67.800 161.717,67.250 161.718 C 66.700 161.719,66.495 161.750,66.795 161.787 M80.961 161.787 C 81.261 161.825,81.711 161.824,81.961 161.786 C 82.212 161.748,81.967 161.717,81.417 161.718 C 80.867 161.719,80.662 161.750,80.961 161.787 M69.798 161.957 C 70.375 161.990,71.275 161.989,71.798 161.956 C 72.322 161.923,71.850 161.897,70.750 161.897 C 69.650 161.897,69.222 161.924,69.798 161.957 M76.875 161.956 C 77.402 161.990,78.265 161.990,78.792 161.956 C 79.319 161.923,78.887 161.896,77.833 161.896 C 76.779 161.896,76.348 161.923,76.875 161.956 " stroke="none" fill="#9c8c34" fill-rule="evenodd"></path><path id="path4" d="M72.125 72.791 C 73.340 72.820,75.327 72.820,76.542 72.791 C 77.756 72.763,76.762 72.739,74.333 72.739 C 71.904 72.739,70.910 72.763,72.125 72.791 M67.461 72.954 C 67.761 72.991,68.211 72.990,68.461 72.952 C 68.712 72.914,68.467 72.884,67.917 72.885 C 67.367 72.886,67.162 72.917,67.461 72.954 M80.125 72.954 C 80.423 72.991,80.910 72.991,81.208 72.954 C 81.506 72.917,81.262 72.887,80.667 72.887 C 80.071 72.887,79.827 72.917,80.125 72.954 M65.042 73.115 C 65.202 73.157,65.465 73.157,65.625 73.115 C 65.785 73.073,65.654 73.039,65.333 73.039 C 65.012 73.039,64.881 73.073,65.042 73.115 M82.960 73.118 C 83.168 73.158,83.468 73.156,83.627 73.115 C 83.786 73.073,83.617 73.040,83.250 73.042 C 82.883 73.044,82.753 73.078,82.960 73.118 M63.042 73.282 C 63.202 73.323,63.465 73.323,63.625 73.282 C 63.785 73.240,63.654 73.205,63.333 73.205 C 63.012 73.205,62.881 73.240,63.042 73.282 M84.960 73.285 C 85.168 73.324,85.468 73.323,85.627 73.281 C 85.786 73.239,85.617 73.207,85.250 73.209 C 84.883 73.211,84.753 73.245,84.960 73.285 M61.542 73.448 C 61.702 73.490,61.965 73.490,62.125 73.448 C 62.285 73.406,62.154 73.372,61.833 73.372 C 61.512 73.372,61.381 73.406,61.542 73.448 M86.375 73.448 C 86.535 73.490,86.798 73.490,86.958 73.448 C 87.119 73.406,86.987 73.372,86.667 73.372 C 86.346 73.372,86.215 73.406,86.375 73.448 M60.208 73.615 C 60.369 73.657,60.631 73.657,60.792 73.615 C 60.952 73.573,60.821 73.539,60.500 73.539 C 60.179 73.539,60.048 73.573,60.208 73.615 M76.955 87.620 C 77.250 87.657,77.775 87.658,78.121 87.622 C 78.467 87.586,78.225 87.555,77.583 87.555 C 76.942 87.554,76.659 87.583,76.955 87.620 M87.653 89.512 C 88.150 89.688,88.585 89.803,88.621 89.768 C 88.698 89.690,87.180 89.162,86.929 89.179 C 86.830 89.186,87.156 89.335,87.653 89.512 M18.745 90.263 L 17.917 91.026 18.792 90.320 C 19.577 89.687,19.766 89.500,19.620 89.500 C 19.595 89.500,19.201 89.843,18.745 90.263 M59.375 90.948 C 59.535 90.990,59.798 90.990,59.958 90.948 C 60.119 90.906,59.987 90.872,59.667 90.872 C 59.346 90.872,59.215 90.906,59.375 90.948 M16.910 91.875 L 16.083 92.750 16.958 91.923 C 17.440 91.468,17.833 91.074,17.833 91.048 C 17.833 90.924,17.679 91.062,16.910 91.875 M133.333 93.583 C 134.201 94.454,134.948 95.167,134.993 95.167 C 135.039 95.167,134.367 94.454,133.500 93.583 C 132.633 92.712,131.886 92.000,131.840 92.000 C 131.794 92.000,132.466 92.712,133.333 93.583 M109.295 92.621 C 109.594 92.658,110.044 92.657,110.295 92.619 C 110.545 92.581,110.300 92.551,109.750 92.552 C 109.200 92.553,108.995 92.584,109.295 92.621 M97.250 93.333 C 97.433 93.412,97.696 93.477,97.833 93.477 C 97.991 93.477,97.960 93.424,97.750 93.333 C 97.567 93.255,97.304 93.190,97.167 93.190 C 97.009 93.190,97.040 93.243,97.250 93.333 M121.417 93.500 C 121.207 93.590,121.176 93.643,121.333 93.643 C 121.471 93.643,121.733 93.579,121.917 93.500 C 122.127 93.410,122.158 93.357,122.000 93.357 C 121.862 93.357,121.600 93.421,121.417 93.500 M44.796 93.622 C 45.188 93.657,45.788 93.657,46.129 93.621 C 46.471 93.585,46.150 93.557,45.417 93.557 C 44.683 93.558,44.404 93.587,44.796 93.622 M60.244 94.375 L 59.417 95.250 60.292 94.423 C 61.105 93.654,61.243 93.500,61.119 93.500 C 61.092 93.500,60.699 93.894,60.244 94.375 M32.417 93.833 C 32.600 93.912,32.862 93.977,33.000 93.977 C 33.158 93.977,33.127 93.924,32.917 93.833 C 32.733 93.755,32.471 93.690,32.333 93.690 C 32.176 93.690,32.207 93.743,32.417 93.833 M98.917 93.833 C 99.100 93.912,99.400 93.974,99.583 93.972 C 99.851 93.968,99.835 93.941,99.500 93.833 C 98.930 93.651,98.492 93.651,98.917 93.833 M56.062 94.119 C 56.325 94.186,56.235 94.345,55.478 95.141 L 54.583 96.083 55.542 95.172 C 56.594 94.172,56.686 93.990,56.125 94.019 C 55.813 94.035,55.802 94.052,56.062 94.119 M34.250 94.333 C 34.433 94.412,34.696 94.477,34.833 94.477 C 34.991 94.477,34.960 94.424,34.750 94.333 C 34.567 94.255,34.304 94.190,34.167 94.190 C 34.009 94.190,34.040 94.243,34.250 94.333 M54.750 94.333 C 54.325 94.516,54.763 94.516,55.333 94.333 C 55.668 94.226,55.685 94.199,55.417 94.195 C 55.233 94.192,54.933 94.255,54.750 94.333 M13.742 95.042 L 13.083 95.750 13.792 95.091 C 14.181 94.729,14.500 94.410,14.500 94.383 C 14.500 94.257,14.355 94.383,13.742 95.042 M106.127 95.118 C 106.334 95.158,106.634 95.156,106.794 95.115 C 106.953 95.073,106.783 95.040,106.417 95.042 C 106.050 95.044,105.920 95.078,106.127 95.118 M112.794 95.118 C 113.001 95.158,113.301 95.156,113.460 95.115 C 113.620 95.073,113.450 95.040,113.083 95.042 C 112.717 95.044,112.586 95.078,112.794 95.118 M109.377 95.286 C 109.631 95.325,110.006 95.324,110.211 95.284 C 110.416 95.244,110.208 95.213,109.750 95.214 C 109.292 95.216,109.124 95.248,109.377 95.286 M45.042 96.288 C 45.385 96.324,45.948 96.324,46.292 96.288 C 46.635 96.252,46.354 96.223,45.667 96.223 C 44.979 96.223,44.698 96.252,45.042 96.288 M53.328 97.458 L 52.417 98.417 53.375 97.506 C 54.265 96.659,54.410 96.500,54.286 96.500 C 54.260 96.500,53.829 96.931,53.328 97.458 M56.161 98.458 L 55.250 99.417 56.208 98.506 C 57.099 97.659,57.243 97.500,57.119 97.500 C 57.093 97.500,56.662 97.931,56.161 98.458 M84.000 97.567 C 84.000 97.613,84.337 97.883,84.750 98.167 C 85.162 98.450,85.500 98.645,85.500 98.599 C 85.500 98.554,85.162 98.284,84.750 98.000 C 84.337 97.716,84.000 97.521,84.000 97.567 M69.083 98.598 L 68.583 99.028 69.125 98.669 C 69.423 98.472,69.667 98.278,69.667 98.239 C 69.667 98.114,69.596 98.157,69.083 98.598 M77.208 98.286 C 77.460 98.324,77.873 98.324,78.125 98.286 C 78.377 98.248,78.171 98.217,77.667 98.217 C 77.162 98.217,76.956 98.248,77.208 98.286 M138.273 99.500 C 138.700 100.142,139.080 100.667,139.118 100.667 C 139.206 100.667,139.082 100.459,138.298 99.292 C 137.944 98.765,137.619 98.333,137.576 98.333 C 137.533 98.333,137.846 98.858,138.273 99.500 M50.991 99.958 L 50.417 100.583 51.042 100.009 C 51.623 99.474,51.743 99.333,51.616 99.333 C 51.588 99.333,51.307 99.615,50.991 99.958 M9.769 100.083 C 9.621 100.313,9.379 100.706,9.230 100.958 L 8.960 101.417 9.296 101.011 C 9.692 100.532,10.217 99.667,10.112 99.667 C 10.071 99.667,9.917 99.854,9.769 100.083 M53.828 100.958 L 52.917 101.917 53.875 101.006 C 54.765 100.159,54.910 100.000,54.786 100.000 C 54.760 100.000,54.329 100.431,53.828 100.958 M49.409 101.708 L 48.750 102.417 49.458 101.758 C 50.117 101.145,50.243 101.000,50.117 101.000 C 50.090 101.000,49.771 101.319,49.409 101.708 M69.750 101.598 L 69.250 102.028 69.792 101.669 C 70.090 101.472,70.333 101.278,70.333 101.239 C 70.333 101.114,70.263 101.157,69.750 101.598 M92.964 104.696 C 93.223 105.021,95.667 107.055,95.667 106.946 C 95.667 106.904,95.010 106.320,94.208 105.648 C 93.406 104.977,92.846 104.549,92.964 104.696 M89.333 105.219 C 89.333 105.265,89.708 105.616,90.167 106.000 C 90.625 106.384,91.000 106.660,91.000 106.614 C 91.000 106.569,90.625 106.217,90.167 105.833 C 89.708 105.450,89.333 105.173,89.333 105.219 M64.250 105.765 L 63.750 106.194 64.292 105.836 C 64.590 105.639,64.833 105.445,64.833 105.405 C 64.833 105.281,64.763 105.324,64.250 105.765 M48.833 105.885 C 48.833 105.914,49.077 106.158,49.375 106.427 L 49.917 106.917 49.427 106.375 C 48.971 105.870,48.833 105.757,48.833 105.885 M54.460 105.951 C 54.668 105.991,54.968 105.990,55.127 105.948 C 55.286 105.906,55.117 105.874,54.750 105.875 C 54.383 105.877,54.253 105.911,54.460 105.951 M56.958 105.951 C 57.165 105.991,57.502 105.991,57.708 105.951 C 57.915 105.911,57.746 105.879,57.333 105.879 C 56.921 105.879,56.752 105.911,56.958 105.951 M142.263 107.042 C 142.583 108.050,142.977 109.064,142.988 108.907 C 143.004 108.667,142.322 106.667,142.223 106.667 C 142.180 106.667,142.198 106.835,142.263 107.042 M5.767 108.267 C 5.606 108.778,5.504 109.226,5.540 109.263 C 5.577 109.299,5.739 108.911,5.900 108.400 C 6.061 107.889,6.163 107.441,6.126 107.404 C 6.090 107.367,5.928 107.756,5.767 108.267 M97.167 108.219 C 97.167 108.248,97.410 108.491,97.708 108.760 L 98.250 109.250 97.760 108.708 C 97.304 108.203,97.167 108.090,97.167 108.219 M98.333 109.219 C 98.333 109.248,98.577 109.491,98.875 109.760 L 99.417 110.250 98.927 109.708 C 98.471 109.203,98.333 109.090,98.333 109.219 M5.262 109.929 C 5.201 110.173,5.183 110.405,5.222 110.444 C 5.261 110.483,5.343 110.316,5.405 110.071 C 5.466 109.827,5.484 109.595,5.445 109.556 C 5.406 109.517,5.323 109.684,5.262 109.929 M94.500 109.552 C 94.500 109.581,94.744 109.825,95.042 110.094 L 95.583 110.583 95.094 110.042 C 94.638 109.537,94.500 109.423,94.500 109.552 M101.833 112.219 C 101.833 112.248,102.077 112.491,102.375 112.760 L 102.917 113.250 102.427 112.708 C 101.971 112.203,101.833 112.090,101.833 112.219 M103.000 113.219 C 103.000 113.248,103.244 113.491,103.542 113.760 L 104.083 114.250 103.594 113.708 C 103.138 113.203,103.000 113.090,103.000 113.219 M99.167 113.552 C 99.167 113.581,99.410 113.825,99.708 114.094 L 100.250 114.583 99.760 114.042 C 99.304 113.537,99.167 113.423,99.167 113.552 M15.333 114.167 C 15.903 114.349,16.341 114.349,15.917 114.167 C 15.733 114.088,15.433 114.026,15.250 114.028 C 14.982 114.032,14.998 114.059,15.333 114.167 M134.693 114.337 C 133.413 114.715,133.079 114.859,133.750 114.744 C 134.439 114.625,136.308 114.031,136.000 114.028 C 135.862 114.027,135.274 114.166,134.693 114.337 M104.167 114.219 C 104.167 114.248,104.410 114.491,104.708 114.760 L 105.250 115.250 104.760 114.708 C 104.304 114.203,104.167 114.090,104.167 114.219 M17.250 114.667 C 17.433 114.745,17.696 114.810,17.833 114.810 C 17.991 114.810,17.960 114.757,17.750 114.667 C 17.567 114.588,17.304 114.523,17.167 114.523 C 17.009 114.523,17.040 114.576,17.250 114.667 M100.333 114.552 C 100.333 114.581,100.577 114.825,100.875 115.094 L 101.417 115.583 100.927 115.042 C 100.471 114.537,100.333 114.423,100.333 114.552 M18.417 115.000 C 18.600 115.079,18.862 115.143,19.000 115.143 C 19.158 115.143,19.127 115.090,18.917 115.000 C 18.733 114.921,18.471 114.857,18.333 114.857 C 18.176 114.857,18.207 114.910,18.417 115.000 M105.333 115.219 C 105.333 115.248,105.577 115.491,105.875 115.760 L 106.417 116.250 105.927 115.708 C 105.471 115.203,105.333 115.090,105.333 115.219 M101.667 115.719 C 101.667 115.748,101.910 115.991,102.208 116.260 L 102.750 116.750 102.260 116.208 C 101.804 115.703,101.667 115.590,101.667 115.719 M102.833 116.719 C 102.833 116.748,103.077 116.991,103.375 117.260 L 103.917 117.750 103.427 117.208 C 102.971 116.703,102.833 116.590,102.833 116.719 M28.000 118.250 C 28.229 118.381,28.492 118.488,28.583 118.488 C 28.675 118.488,28.563 118.381,28.333 118.250 C 28.104 118.119,27.842 118.012,27.750 118.012 C 27.658 118.012,27.771 118.119,28.000 118.250 M122.583 118.256 C 122.167 118.457,122.153 118.480,122.500 118.395 C 122.972 118.279,123.503 118.009,123.250 118.013 C 123.158 118.014,122.858 118.123,122.583 118.256 M109.167 118.552 C 109.167 118.581,109.410 118.825,109.708 119.094 L 110.250 119.583 109.760 119.042 C 109.304 118.537,109.167 118.423,109.167 118.552 M105.167 118.719 C 105.167 118.748,105.410 118.991,105.708 119.260 L 106.250 119.750 105.760 119.208 C 105.304 118.703,105.167 118.590,105.167 118.719 M120.750 118.923 C 120.333 119.123,120.319 119.146,120.667 119.062 C 121.139 118.946,121.670 118.676,121.417 118.679 C 121.325 118.681,121.025 118.790,120.750 118.923 M110.333 119.552 C 110.333 119.581,110.577 119.825,110.875 120.094 L 111.417 120.583 110.927 120.042 C 110.471 119.537,110.333 119.423,110.333 119.552 M106.667 120.052 C 106.667 120.081,106.910 120.325,107.208 120.594 L 107.750 121.083 107.260 120.542 C 106.804 120.037,106.667 119.923,106.667 120.052 M40.625 120.454 C 40.923 120.491,41.410 120.491,41.708 120.454 C 42.006 120.417,41.762 120.387,41.167 120.387 C 40.571 120.387,40.327 120.417,40.625 120.454 M112.470 121.476 C 113.112 122.076,113.234 122.129,113.596 121.964 C 113.819 121.862,113.970 121.748,113.932 121.709 C 113.893 121.671,113.716 121.718,113.537 121.814 C 113.270 121.956,113.081 121.881,112.481 121.395 L 111.750 120.803 112.470 121.476 M107.833 121.052 C 107.833 121.081,108.077 121.325,108.375 121.594 L 108.917 122.083 108.427 121.542 C 107.971 121.037,107.833 120.923,107.833 121.052 M36.715 121.902 C 36.358 122.202,36.166 122.263,35.952 122.143 C 35.795 122.055,35.667 122.022,35.667 122.069 C 35.667 122.464,36.309 122.417,36.827 121.983 C 37.144 121.717,37.356 121.500,37.298 121.500 C 37.240 121.500,36.978 121.681,36.715 121.902 M50.294 121.618 C 50.501 121.658,50.801 121.656,50.960 121.615 C 51.120 121.573,50.950 121.540,50.583 121.542 C 50.217 121.544,50.086 121.578,50.294 121.618 M45.953 122.334 C 46.339 122.737,46.681 123.033,46.713 122.992 C 46.745 122.950,46.429 122.621,46.011 122.259 L 45.250 121.602 45.953 122.334 M95.667 121.719 C 95.667 121.748,95.910 121.991,96.208 122.260 L 96.750 122.750 96.260 122.208 C 95.804 121.703,95.667 121.590,95.667 121.719 M47.625 122.345 C 47.281 122.526,47.000 122.712,47.000 122.757 C 47.000 122.832,48.316 122.216,48.486 122.063 C 48.678 121.889,48.177 122.053,47.625 122.345 M93.500 122.106 C 93.500 122.195,93.781 122.526,94.125 122.842 L 94.750 123.417 94.167 122.752 C 93.846 122.386,93.565 122.055,93.542 122.016 C 93.519 121.977,93.500 122.017,93.500 122.106 M109.000 122.052 C 109.000 122.081,109.244 122.325,109.542 122.594 L 110.083 123.083 109.594 122.542 C 109.138 122.037,109.000 121.923,109.000 122.052 M54.681 122.222 C 54.969 122.451,56.320 123.114,56.243 122.988 C 56.140 122.821,54.933 122.167,54.729 122.167 C 54.664 122.167,54.642 122.191,54.681 122.222 M96.833 122.719 C 96.833 122.748,97.077 122.991,97.375 123.260 L 97.917 123.750 97.427 123.208 C 96.971 122.703,96.833 122.590,96.833 122.719 M57.000 123.750 C 57.311 124.071,57.603 124.333,57.649 124.333 C 57.695 124.333,57.478 124.071,57.167 123.750 C 56.856 123.429,56.564 123.167,56.518 123.167 C 56.472 123.167,56.689 123.429,57.000 123.750 M110.333 123.219 C 110.333 123.248,110.577 123.491,110.875 123.760 L 111.417 124.250 110.927 123.708 C 110.471 123.203,110.333 123.090,110.333 123.219 M37.973 124.292 C 37.434 124.877,37.000 125.526,37.001 125.745 C 37.001 125.840,37.159 125.654,37.351 125.333 C 37.543 125.013,37.895 124.544,38.132 124.292 C 38.368 124.040,38.525 123.833,38.479 123.833 C 38.433 123.833,38.206 124.040,37.973 124.292 M43.833 123.885 C 43.833 123.914,44.077 124.158,44.375 124.427 L 44.917 124.917 44.427 124.375 C 43.971 123.870,43.833 123.757,43.833 123.885 M98.333 124.052 C 98.333 124.081,98.577 124.325,98.875 124.594 L 99.417 125.083 98.927 124.542 C 98.471 124.037,98.333 123.923,98.333 124.052 M51.128 124.287 C 51.428 124.325,51.878 124.324,52.128 124.286 C 52.378 124.248,52.133 124.217,51.583 124.218 C 51.033 124.219,50.828 124.250,51.128 124.287 M57.998 124.958 C 58.195 125.256,58.482 125.494,58.636 125.487 C 58.865 125.476,58.871 125.457,58.667 125.382 C 58.529 125.331,58.242 125.093,58.028 124.853 L 57.639 124.417 57.998 124.958 M54.417 124.938 C 54.508 125.019,54.883 125.347,55.250 125.667 L 55.916 126.250 55.416 125.694 C 55.142 125.388,54.767 125.060,54.583 124.965 C 54.400 124.870,54.325 124.858,54.417 124.938 M60.288 125.120 C 60.584 125.157,61.109 125.158,61.455 125.122 C 61.800 125.086,61.558 125.055,60.917 125.055 C 60.275 125.054,59.992 125.083,60.288 125.120 M100.417 126.000 C 100.775 126.367,101.105 126.667,101.151 126.667 C 101.197 126.667,100.941 126.367,100.583 126.000 C 100.225 125.633,99.895 125.333,99.849 125.333 C 99.803 125.333,100.059 125.633,100.417 126.000 M97.667 126.417 C 98.165 126.921,98.609 127.333,98.655 127.333 C 98.701 127.333,98.331 126.921,97.833 126.417 C 97.335 125.912,96.891 125.500,96.845 125.500 C 96.799 125.500,97.169 125.912,97.667 126.417 M64.181 125.722 C 64.469 125.951,65.820 126.614,65.743 126.488 C 65.640 126.321,64.433 125.667,64.229 125.667 C 64.164 125.667,64.142 125.691,64.181 125.722 M36.714 127.417 C 36.716 127.875,36.748 128.043,36.786 127.789 C 36.825 127.536,36.824 127.161,36.784 126.956 C 36.744 126.751,36.713 126.958,36.714 127.417 M66.500 127.250 C 66.811 127.571,67.103 127.833,67.149 127.833 C 67.195 127.833,66.978 127.571,66.667 127.250 C 66.356 126.929,66.064 126.667,66.018 126.667 C 65.972 126.667,66.189 126.929,66.500 127.250 M101.833 127.250 C 102.144 127.571,102.436 127.833,102.482 127.833 C 102.528 127.833,102.311 127.571,102.000 127.250 C 101.689 126.929,101.397 126.667,101.351 126.667 C 101.305 126.667,101.522 126.929,101.833 127.250 M113.379 127.833 C 113.379 128.246,113.411 128.415,113.451 128.208 C 113.491 128.002,113.491 127.665,113.451 127.458 C 113.411 127.252,113.379 127.421,113.379 127.833 M57.739 128.846 C 57.542 129.063,57.287 129.165,57.051 129.120 C 56.845 129.080,56.716 129.112,56.765 129.191 C 56.933 129.462,57.444 129.331,57.833 128.917 C 58.049 128.688,58.186 128.500,58.138 128.500 C 58.091 128.500,57.911 128.656,57.739 128.846 M103.333 128.552 C 103.333 128.581,103.577 128.825,103.875 129.094 L 104.417 129.583 103.927 129.042 C 103.471 128.537,103.333 128.423,103.333 128.552 M64.333 128.719 C 64.333 128.748,64.577 128.991,64.875 129.260 L 65.417 129.750 64.927 129.208 C 64.471 128.703,64.333 128.590,64.333 128.719 M37.001 129.100 C 37.000 129.343,37.860 130.519,38.264 130.827 C 38.440 130.961,38.385 130.848,38.142 130.577 C 37.899 130.305,37.543 129.821,37.351 129.500 C 37.159 129.179,37.001 128.999,37.001 129.100 M101.667 130.417 C 102.165 130.921,102.609 131.333,102.655 131.333 C 102.701 131.333,102.331 130.921,101.833 130.417 C 101.335 129.912,100.891 129.500,100.845 129.500 C 100.799 129.500,101.169 129.912,101.667 130.417 M105.333 130.395 C 105.914 131.026,106.792 131.597,106.945 131.444 C 106.989 131.400,106.859 131.311,106.655 131.246 C 106.451 131.182,105.939 130.821,105.517 130.445 L 104.750 129.762 105.333 130.395 M86.812 130.443 C 86.603 130.697,86.615 130.700,86.955 130.489 C 87.255 130.302,87.431 130.296,87.871 130.457 C 88.364 130.637,88.385 130.633,88.093 130.412 C 87.664 130.087,87.095 130.101,86.812 130.443 M44.067 130.708 L 43.750 131.083 44.122 130.769 C 44.427 130.511,44.539 130.492,44.747 130.664 C 44.891 130.784,45.000 130.802,45.000 130.705 C 45.000 130.569,44.637 130.333,44.429 130.333 C 44.405 130.333,44.242 130.502,44.067 130.708 M44.885 132.417 C 44.886 132.967,44.917 133.172,44.954 132.872 C 44.991 132.572,44.990 132.122,44.952 131.872 C 44.914 131.622,44.884 131.867,44.885 132.417 M90.333 132.417 C 90.831 132.921,91.276 133.333,91.322 133.333 C 91.368 133.333,90.998 132.921,90.500 132.417 C 90.002 131.912,89.557 131.500,89.511 131.500 C 89.466 131.500,89.835 131.912,90.333 132.417 M66.055 132.750 C 66.055 133.392,66.086 133.634,66.122 133.288 C 66.158 132.942,66.157 132.417,66.120 132.121 C 66.083 131.825,66.054 132.108,66.055 132.750 M108.292 131.784 C 108.498 131.824,108.835 131.824,109.042 131.784 C 109.248 131.745,109.079 131.712,108.667 131.712 C 108.254 131.712,108.085 131.745,108.292 131.784 M37.333 133.248 C 37.333 133.362,38.354 133.868,38.430 133.792 C 38.466 133.756,38.234 133.602,37.915 133.449 C 37.595 133.297,37.333 133.206,37.333 133.248 M88.917 134.000 C 89.275 134.367,89.605 134.667,89.651 134.667 C 89.697 134.667,89.441 134.367,89.083 134.000 C 88.725 133.633,88.395 133.333,88.349 133.333 C 88.303 133.333,88.559 133.633,88.917 134.000 M68.875 133.615 C 69.035 133.657,69.298 133.657,69.458 133.615 C 69.619 133.573,69.487 133.539,69.167 133.539 C 68.846 133.539,68.715 133.573,68.875 133.615 M71.667 134.120 C 71.804 134.171,72.273 134.392,72.708 134.609 C 73.144 134.827,73.500 134.968,73.500 134.922 C 73.500 134.792,71.869 133.998,71.631 134.013 C 71.491 134.022,71.504 134.059,71.667 134.120 M94.333 136.220 C 96.237 138.173,97.298 139.006,97.868 138.996 C 97.987 138.994,97.746 138.841,97.333 138.656 C 96.855 138.441,95.798 137.551,94.417 136.201 L 92.250 134.083 94.333 136.220 M104.372 134.667 C 104.372 134.987,104.406 135.119,104.448 134.958 C 104.490 134.798,104.490 134.535,104.448 134.375 C 104.406 134.215,104.372 134.346,104.372 134.667 M45.170 134.465 C 45.165 134.775,45.791 135.955,46.039 136.104 C 46.206 136.204,46.208 136.179,46.048 135.981 C 45.937 135.843,45.695 135.398,45.510 134.990 C 45.325 134.583,45.172 134.347,45.170 134.465 M90.250 135.500 C 90.608 135.867,90.938 136.167,90.984 136.167 C 91.030 136.167,90.775 135.867,90.417 135.500 C 90.059 135.133,89.728 134.833,89.682 134.833 C 89.637 134.833,89.892 135.133,90.250 135.500 M65.353 136.175 C 65.331 136.654,65.607 137.006,65.992 136.988 C 66.170 136.980,66.147 136.936,65.917 136.847 C 65.733 136.775,65.536 136.499,65.478 136.233 C 65.377 135.770,65.372 135.768,65.353 136.175 M91.500 136.917 C 91.811 137.237,92.103 137.500,92.149 137.500 C 92.195 137.500,91.978 137.237,91.667 136.917 C 91.356 136.596,91.064 136.333,91.018 136.333 C 90.972 136.333,91.189 136.596,91.500 136.917 M103.234 137.185 C 102.733 137.740,102.028 138.192,101.018 138.608 C 100.504 138.819,100.203 138.994,100.348 138.996 C 100.828 139.003,102.578 138.024,103.160 137.423 C 103.475 137.099,103.691 136.833,103.642 136.833 C 103.592 136.833,103.409 136.991,103.234 137.185 M53.998 138.216 L 54.079 139.250 54.132 138.351 C 54.162 137.857,54.125 137.392,54.051 137.317 C 53.977 137.243,53.953 137.647,53.998 138.216 M72.995 138.083 C 73.491 138.633,73.930 139.121,73.971 139.167 C 74.012 139.212,73.966 139.100,73.869 138.917 C 73.772 138.733,73.333 138.246,72.893 137.833 L 72.094 137.083 72.995 138.083 M44.667 138.417 C 44.978 138.737,45.270 139.000,45.315 139.000 C 45.361 139.000,45.144 138.737,44.833 138.417 C 44.522 138.096,44.230 137.833,44.185 137.833 C 44.139 137.833,44.356 138.096,44.667 138.417 M93.083 138.667 C 93.441 139.033,93.772 139.333,93.818 139.333 C 93.863 139.333,93.608 139.033,93.250 138.667 C 92.892 138.300,92.562 138.000,92.516 138.000 C 92.470 138.000,92.725 138.300,93.083 138.667 M81.833 138.219 C 81.833 138.248,82.077 138.491,82.375 138.760 L 82.917 139.250 82.427 138.708 C 81.971 138.203,81.833 138.090,81.833 138.219 M98.708 139.119 C 98.960 139.158,99.373 139.158,99.625 139.119 C 99.877 139.081,99.671 139.050,99.167 139.050 C 98.662 139.050,98.456 139.081,98.708 139.119 M54.174 139.500 C 54.167 139.779,54.769 140.833,54.935 140.833 C 54.993 140.833,54.959 140.734,54.858 140.614 C 54.758 140.493,54.564 140.136,54.428 139.822 C 54.291 139.507,54.177 139.362,54.174 139.500 M134.740 139.875 L 134.250 140.417 134.792 139.927 C 135.090 139.658,135.333 139.414,135.333 139.385 C 135.333 139.257,135.196 139.370,134.740 139.875 M83.993 140.208 C 84.684 140.944,84.833 141.077,84.833 140.951 C 84.833 140.925,84.477 140.568,84.042 140.160 L 83.250 139.417 83.993 140.208 M94.168 140.042 C 94.797 141.073,94.597 142.066,93.522 143.250 L 92.917 143.916 93.556 143.333 C 94.364 142.596,94.667 142.018,94.666 141.217 C 94.666 140.666,94.160 139.500,93.922 139.500 C 93.876 139.500,93.987 139.744,94.168 140.042 M81.167 140.417 C 81.478 140.737,81.770 141.000,81.815 141.000 C 81.861 141.000,81.644 140.737,81.333 140.417 C 81.022 140.096,80.730 139.833,80.685 139.833 C 80.639 139.833,80.856 140.096,81.167 140.417 M15.167 141.417 C 15.757 142.012,16.278 142.500,16.324 142.500 C 16.370 142.500,15.924 142.012,15.333 141.417 C 14.743 140.821,14.222 140.333,14.176 140.333 C 14.130 140.333,14.576 140.821,15.167 141.417 M74.556 141.833 C 74.556 142.521,74.585 142.802,74.621 142.458 C 74.657 142.115,74.657 141.552,74.621 141.208 C 74.585 140.865,74.556 141.146,74.556 141.833 M50.042 140.948 C 50.202 140.990,50.465 140.990,50.625 140.948 C 50.785 140.906,50.654 140.872,50.333 140.872 C 50.012 140.872,49.881 140.906,50.042 140.948 M77.218 141.917 C 77.219 142.467,77.250 142.672,77.287 142.372 C 77.325 142.072,77.324 141.622,77.286 141.372 C 77.248 141.122,77.217 141.367,77.218 141.917 M55.486 141.394 C 55.708 141.667,56.333 142.080,56.333 141.954 C 56.333 141.922,56.090 141.718,55.792 141.499 C 55.456 141.254,55.340 141.214,55.486 141.394 M61.828 141.617 L 61.417 142.083 61.844 141.708 C 62.291 141.316,62.912 141.212,63.057 141.504 C 63.104 141.598,63.123 141.579,63.100 141.462 C 63.016 141.040,62.256 141.132,61.828 141.617 M82.660 142.042 C 83.350 142.778,83.500 142.910,83.500 142.785 C 83.500 142.758,83.144 142.402,82.708 141.993 L 81.917 141.250 82.660 142.042 M86.326 142.375 C 87.017 143.111,87.167 143.243,87.167 143.118 C 87.167 143.091,86.810 142.735,86.375 142.326 L 85.583 141.583 86.326 142.375 M131.658 142.958 L 131.083 143.583 131.708 143.009 C 132.290 142.474,132.410 142.333,132.283 142.333 C 132.255 142.333,131.974 142.615,131.658 142.958 M84.333 143.917 C 84.644 144.237,84.936 144.500,84.982 144.500 C 85.028 144.500,84.811 144.237,84.500 143.917 C 84.189 143.596,83.897 143.333,83.851 143.333 C 83.805 143.333,84.022 143.596,84.333 143.917 M73.789 144.709 L 73.495 145.250 73.831 144.857 C 74.117 144.522,74.269 144.164,74.125 144.168 C 74.102 144.168,73.951 144.412,73.789 144.709 M89.711 144.620 C 89.964 144.658,90.339 144.657,90.544 144.617 C 90.749 144.578,90.542 144.546,90.083 144.548 C 89.625 144.549,89.457 144.581,89.711 144.620 M85.492 145.213 C 85.685 145.470,85.662 145.571,85.321 145.963 L 84.926 146.417 85.416 145.959 C 85.897 145.511,85.901 145.496,85.588 145.209 C 85.283 144.930,85.278 144.930,85.492 145.213 M58.127 145.285 C 58.334 145.324,58.634 145.323,58.794 145.281 C 58.953 145.239,58.783 145.207,58.417 145.209 C 58.050 145.211,57.920 145.245,58.127 145.285 M59.460 145.285 C 59.668 145.324,59.968 145.323,60.127 145.281 C 60.286 145.239,60.117 145.207,59.750 145.209 C 59.383 145.211,59.253 145.245,59.460 145.285 M64.833 145.917 C 65.144 146.237,65.436 146.500,65.482 146.500 C 65.528 146.500,65.311 146.237,65.000 145.917 C 64.689 145.596,64.397 145.333,64.351 145.333 C 64.305 145.333,64.522 145.596,64.833 145.917 M72.824 145.958 L 72.250 146.583 72.875 146.009 C 73.457 145.474,73.577 145.333,73.449 145.333 C 73.422 145.333,73.140 145.615,72.824 145.958 M77.333 145.917 C 77.563 146.048,77.825 146.155,77.917 146.155 C 78.008 146.155,77.896 146.048,77.667 145.917 C 77.438 145.786,77.175 145.678,77.083 145.678 C 76.992 145.678,77.104 145.786,77.333 145.917 M79.917 146.826 C 80.237 146.971,81.129 147.065,80.986 146.939 C 80.948 146.905,80.617 146.832,80.250 146.776 C 79.785 146.705,79.684 146.720,79.917 146.826 M80.542 149.615 C 80.702 149.657,80.965 149.657,81.125 149.615 C 81.285 149.573,81.154 149.539,80.833 149.539 C 80.512 149.539,80.381 149.573,80.542 149.615 M82.708 149.615 C 82.869 149.657,83.131 149.657,83.292 149.615 C 83.452 149.573,83.321 149.539,83.000 149.539 C 82.679 149.539,82.548 149.573,82.708 149.615 M68.544 150.120 C 68.797 150.158,69.172 150.157,69.377 150.117 C 69.582 150.078,69.375 150.046,68.917 150.048 C 68.458 150.049,68.291 150.081,68.544 150.120 M65.542 161.782 C 65.702 161.823,65.965 161.823,66.125 161.782 C 66.285 161.740,66.154 161.705,65.833 161.705 C 65.512 161.705,65.381 161.740,65.542 161.782 M82.542 161.782 C 82.702 161.823,82.965 161.823,83.125 161.782 C 83.285 161.740,83.154 161.705,82.833 161.705 C 82.512 161.705,82.381 161.740,82.542 161.782 M67.792 161.951 C 67.998 161.991,68.335 161.991,68.542 161.951 C 68.748 161.911,68.579 161.879,68.167 161.879 C 67.754 161.879,67.585 161.911,67.792 161.951 M79.958 161.951 C 80.165 161.991,80.502 161.991,80.708 161.951 C 80.915 161.911,80.746 161.879,80.333 161.879 C 79.921 161.879,79.752 161.911,79.958 161.951 M73.381 162.123 C 73.912 162.157,74.737 162.156,75.214 162.123 C 75.692 162.089,75.258 162.062,74.250 162.062 C 73.242 162.063,72.851 162.090,73.381 162.123 " stroke="none" fill="#676765" fill-rule="evenodd"></path></g></svg>